<svg width="30" height="30" viewBox="0 0 30 30" fill="none" xmlns="http://www.w3.org/2000/svg">
<path fill-rule="evenodd" clip-rule="evenodd" d="M14.6667 2.66667C8.03925 2.66667 2.66667 8.03925 2.66667 14.6667C2.66667 18.2291 4.21899 21.4289 6.68412 23.6267C6.77069 22.7028 7.1766 21.8332 7.83824 21.1716C8.58838 20.4214 9.6058 20 10.6667 20H18.6667C19.7275 20 20.7449 20.4214 21.4951 21.1716C22.1567 21.8332 22.5626 22.7028 22.6492 23.6267C25.1143 21.4289 26.6667 18.2291 26.6667 14.6667C26.6667 8.03925 21.2941 2.66667 14.6667 2.66667ZM20 25.4193V24C20 23.6464 19.8595 23.3072 19.6095 23.0572C19.3594 22.8071 19.0203 22.6667 18.6667 22.6667H10.6667C10.313 22.6667 9.97391 22.8071 9.72386 23.0572C9.47381 23.3072 9.33333 23.6464 9.33333 24V25.4193C10.9399 26.2177 12.7509 26.6667 14.6667 26.6667C16.5825 26.6667 18.3934 26.2177 20 25.4193ZM0 14.6667C0 6.56649 6.56649 0 14.6667 0C22.7668 0 29.3333 6.56649 29.3333 14.6667C29.3333 22.7668 22.7668 29.3333 14.6667 29.3333C6.56649 29.3333 0 22.7668 0 14.6667ZM14.6667 9.33333C13.1939 9.33333 12 10.5272 12 12C12 13.4728 13.1939 14.6667 14.6667 14.6667C16.1394 14.6667 17.3333 13.4728 17.3333 12C17.3333 10.5272 16.1394 9.33333 14.6667 9.33333ZM9.33333 12C9.33333 9.05448 11.7211 6.66667 14.6667 6.66667C17.6122 6.66667 20 9.05448 20 12C20 14.9455 17.6122 17.3333 14.6667 17.3333C11.7211 17.3333 9.33333 14.9455 9.33333 12Z" fill="black"/>
</svg>
