<svg width="20" height="18" viewBox="0 0 14 10" fill="none" xmlns="http://www.w3.org/2000/svg">
<path fill-rule="evenodd" clip-rule="evenodd" d="M7.00095 1.50041C5.87458 1.50041 4.77358 1.83485 3.83752 2.46135C2.90728 3.08395 2.18157 3.9671 1.7511 5.00005C2.18157 6.03299 2.90728 6.91615 3.83752 7.53875C4.77358 8.16524 5.87458 8.49969 7.00095 8.49969C8.12731 8.49969 9.22832 8.16524 10.1644 7.53875C11.0946 6.91615 11.8203 6.03299 12.2508 5.00005C11.8203 3.9671 11.0946 3.08395 10.1644 2.46135C9.22832 1.83485 8.12731 1.50041 7.00095 1.50041ZM3.18861 1.4918C4.31668 0.736791 5.64353 0.33374 7.00095 0.33374C8.35836 0.33374 9.68521 0.736791 10.8133 1.4918C11.9414 2.2468 12.8198 3.31976 13.3374 4.57464C13.34 4.58106 13.3426 4.58753 13.345 4.59405C13.4422 4.85598 13.4422 5.14411 13.345 5.40605C13.3426 5.41256 13.34 5.41903 13.3374 5.42545C12.8198 6.68034 11.9414 7.75329 10.8133 8.5083C9.68521 9.2633 8.35836 9.66636 7.00095 9.66636C5.64353 9.66636 4.31668 9.2633 3.18861 8.5083C2.06054 7.75329 1.18205 6.68034 0.664508 5.42545C0.661859 5.41903 0.659325 5.41256 0.656907 5.40605C0.559677 5.14411 0.559677 4.85598 0.656907 4.59405C0.659325 4.58753 0.661859 4.58106 0.664508 4.57464C1.18205 3.31976 2.06054 2.2468 3.18861 1.4918ZM7.00095 3.83338C6.35661 3.83338 5.83428 4.35572 5.83428 5.00005C5.83428 5.64438 6.35661 6.16671 7.00095 6.16671C7.64528 6.16671 8.16761 5.64438 8.16761 5.00005C8.16761 4.35572 7.64528 3.83338 7.00095 3.83338ZM4.66761 5.00005C4.66761 3.71138 5.71228 2.66671 7.00095 2.66671C8.28961 2.66671 9.33428 3.71138 9.33428 5.00005C9.33428 6.28871 8.28961 7.33338 7.00095 7.33338C5.71228 7.33338 4.66761 6.28871 4.66761 5.00005Z" fill="#1E2024"/>
</svg>
